<?xml version="1.0" standalone="no"?><!DOCTYPE svg PUBLIC "-//W3C//DTD SVG 1.1//EN" "http://www.w3.org/Graphics/SVG/1.1/DTD/svg11.dtd"><svg t="1649217482694" class="icon" viewBox="0 0 1024 1024" version="1.1" xmlns="http://www.w3.org/2000/svg" p-id="9105" xmlns:xlink="http://www.w3.org/1999/xlink" width="200" height="200"><defs><style type="text/css">@font-face { font-family: feedback-iconfont; src: url("//at.alicdn.com/t/font_1031158_u69w8yhxdu.woff2?t=1630033759944") format("woff2"), url("//at.alicdn.com/t/font_1031158_u69w8yhxdu.woff?t=1630033759944") format("woff"), url("//at.alicdn.com/t/font_1031158_u69w8yhxdu.ttf?t=1630033759944") format("truetype"); }
</style></defs><path d="M0 64l0 384 0 64 0 128 0 64 0 192 960 0L960 64 0 64zM704 128l0 128L512 256 512 128 704 128zM448 512l0 128L256 640 256 512 448 512zM256 448 256 320l192 0 0 128L256 448zM512 512l192 0 0 128L512 640 512 512zM512 448 512 320l192 0 0 128L512 448zM448 128l0 128L256 256 256 128 448 128zM64 128l128 0 0 128L64 256 64 128zM64 320l128 0 0 128L64 448 64 320zM64 512l128 0 0 128L64 640 64 512zM64 832l0-128 128 0 0 128L64 832zM256 832l0-128 192 0 0 128L256 832zM512 832l0-128 192 0 0 128L512 832zM896 832l-128 0 0-128 128 0L896 832zM896 640l-128 0L768 512l128 0L896 640zM896 448l-128 0L768 320l128 0L896 448zM896 256l-128 0L768 128l128 0L896 256z" p-id="9106"></path></svg>