<?xml version="1.0" standalone="no"?><!DOCTYPE svg PUBLIC "-//W3C//DTD SVG 1.1//EN" "http://www.w3.org/Graphics/SVG/1.1/DTD/svg11.dtd"><svg t="1649217474883" class="icon" viewBox="0 0 1024 1024" version="1.1" xmlns="http://www.w3.org/2000/svg" p-id="8968" xmlns:xlink="http://www.w3.org/1999/xlink" width="200" height="200"><defs><style type="text/css">@font-face { font-family: feedback-iconfont; src: url("//at.alicdn.com/t/font_1031158_u69w8yhxdu.woff2?t=1630033759944") format("woff2"), url("//at.alicdn.com/t/font_1031158_u69w8yhxdu.woff?t=1630033759944") format("woff"), url("//at.alicdn.com/t/font_1031158_u69w8yhxdu.ttf?t=1630033759944") format("truetype"); }
</style></defs><path d="M640 64 576 64 320 64 256 64 0 64l0 256 0 64 0 192 0 64 0 256 576 0 64 0 320 0L960 64 640 64zM576 128l0 192L320 320 320 128 576 128zM576 384l0 192L320 576 320 384 576 384zM64 128l192 0 0 192L64 320 64 128zM64 384l192 0 0 192L64 576 64 384zM64 832l0-192 192 0 0 192L64 832zM320 832l0-192 256 0 0 192L320 832zM896 832l-256 0 0-192 256 0L896 832zM896 576l-256 0L640 384l256 0L896 576zM896 320l-256 0L640 128l256 0L896 320z" p-id="8969"></path></svg>